# AST/ASF file generated using VICON BodyLanguage
# -----------------------------------------------
:version 1.10
:name VICON
:units
  mass 1.0
  length 0.45
  angle deg
:documentation
   .ast/.asf automatically generated from VICON data using
   VICON BodyBuilder and BodyLanguage model FoxedUp or BRILLIANT.MOD
:root
   order TX TY TZ RX RY RZ
   axis XYZ
   position 0 0 0  
   orientation 0 0 0 
:bonedata
  begin
     id 1 
     name lhipjoint
     direction 0.535335 -0.74333 0.401095 
     length 2.04549 
     axis 0 0 0  XYZ
  end
  begin
     id 2 
     name lfemur
     direction 0.34202 -0.939693 0  
     length 6.95643  
     axis 0 0 20  XYZ
    dof rx ry rz
    limits (-160.0 20.0)
           (-70.0 70.0)
           (-60.0 70.0)
  end
  begin
     id 3 
     name ltibia
     direction 0.34192 -0.939729 0   
     length 5.55969   
     axis 0 0 20   XYZ
    dof rx
    limits (-10.0 170.0)
  end
  begin
     id 4 
     name lfoot
     direction 0.216943 -0.596046 0.773088   
     length 2.27918   
     axis -90 7.62852e-016 20   XYZ
    dof rx rz
    limits (-45.0 90.0)
           (-70.0 20.0)
  end
  begin
     id 5 
     name ltoes
     direction 1.53519e-011 -4.21748e-011 1   
     length 1.05562   
     axis -90 7.62852e-016 20   XYZ
    dof rx
    limits (-90.0 20.0)
  end
  begin
     id 6 
     name rhipjoint
     direction -0.576368 -0.719173 0.38806   
     length 2.1142  
     axis 0 0 0  XYZ 
  end
  begin
     id 7 
     name rfemur
     direction -0.34202 -0.939693 0   
     length 7.07928   
     axis 0 0 -20   XYZ
    dof rx ry rz
    limits (-160.0 20.0)
           (-70.0 70.0)
           (-70.0 60.0)
  end
  begin
     id 8 
     name rtibia
     direction -0.34202 -0.939693 0   
     length 5.79974   
     axis 0 0 -20   XYZ
    dof rx
    limits (-10.0 170.0)
 end
 begin
     id 9 
     name rfoot
     direction -0.189288 -0.520065 0.832888   
     length 2.42173  
     axis -90 -7.62852e-016 -20   XYZ
    dof rx rz
    limits (-45.0 90.0)
           (-20.0 70.0)
  end
  begin
     id 10 
     name rtoes
     direction -1.53574e-011 -4.21658e-011 1   
     length 1.14469   
     axis -90 -7.62852e-016 -20   XYZ
    dof rx
    limits (-90.0 20.0)
  end
  begin
     id 11 
     name lowerback
     direction -0.00135702 0.993803 0.111144   
     length 1.91308   
     axis 0 0 0   XYZ
    dof rx ry rz
    limits (-20.0 45.0)
           (-30.0 30.0)
           (-30.0 30.0)
  end
  begin
     id 12 
     name upperback
     direction -0.0056745 0.999813 0.0184631   
     length 1.9212   
     axis 0 0 0   XYZ
    dof rx ry rz
    limits (-20.0 45.0)
           (-30.0 30.0)
           (-30.0 30.0)
  end
  begin
     id 13 
     name thorax
     direction -0.00733434 0.999426 -0.0330788   
     length 1.94196   
     axis 0 0 0   XYZ
    dof rx ry rz
    limits (-20.0 45.0)
           (-30.0 30.0)
           (-30.0 30.0)
  end
  begin
     id 14 
     name lowerneck
     direction 0.0563074 0.996944 -0.0541571   
     length 2.34257   
     axis 0 0 0   XYZ
    dof rx ry rz
    limits (-20.0 45.0)
           (-30.0 30.0)
           (-30.0 30.0)
  end
  begin
     id 15 
     name upperneck
     direction -0.0544519 0.976166 -0.210085   
     length 2.32506   
     axis 0 0 0   XYZ
    dof rx ry rz
    limits (-20.0 45.0)
           (-30.0 30.0)
           (-30.0 30.0)
  end
  begin
     id 16
     name head
     direction -0.0226035 0.997615 -0.0652205  
     length 2.3648  
     axis 0 0 0   XYZ
    dof rx ry rz
    limits (-20.0 45.0)
           (-30.0 30.0)
           (-30.0 30.0)
  end
  begin
     id 17 
     name lclavicle
     direction 0.92109 0.381297 -0.0787716  
     length 4.0487  
     axis 0 0 0   XYZ
    dof ry rz
    limits (-20.0 10.0)
           (0.0 20.0)
  end
  begin
     id 18 
     name lhumerus
     direction 1 -4.48986e-011 3.56724e-027   
     length 4.94991   
     axis 180 -30 -90   XYZ
    dof rx ry rz
    limits (-60.0 90.0)
           (-90.0 90.0)
           (-90.0 90.0)
  end
  begin
     id 19
     name lradius
     direction 1 -4.48981e-011 8.62147e-027   
     length 2.7606   
     axis 180 -30 -90   XYZ
    dof rx
    limits (-10.0 170.0)
  end
  begin
     id 20
     name lwrist
     direction 1 -4.48989e-011 1.59799e-026   
     length 1.3803   
     axis -1.17785e-014 90 90   XYZ
    dof ry
    limits (-180.0 0.0)
 end
  begin
     id 21 
     name lhand
     direction 1 -4.48896e-011 3.19599e-026   
     length 0.843936   
     axis -2.03931e-014 90 90   XYZ
    dof rx rz
    limits (-90.0 90.0)
           (-45.0 45.0)
  end
  begin
     id 22 
     name lfingers
     direction 1 -4.48887e-011 6.39197e-026   
     length 0.680403   
     axis -4.07862e-014 90 90   XYZ
    dof rx
    limits (0.0 90.0)
  end
  begin
     id 23
     name lthumb
     direction 0.707107 -6.348e-011 0.707107   
     length 0.976926   
     axis -90 45 2.85299e-015   XYZ
    dof rx rz
    limits (-45.0 45.0)
           (-45.0 45.0)
  end
  begin
     id 24 
     name rclavicle
     direction -0.951104 0.307692 -0.026953   
     length 4.21801  
     axis 0 0 0   XYZ 
    dof ry rz
    limits (-10.0 20.0)
           (-20.0 0.0)
  end
  begin
     id 25 
     name rhumerus
     direction -1 -4.4896e-011 -1.8171e-018  
     length 4.32982   
     axis 180 30 90   XYZ
    dof rx ry rz
    limits (-90.0 60.0)
           (-90.0 90.0)
           (-90.0 90.0)
  end
  begin
     id 26 
     name rradius
     direction -1 -4.48959e-011 8.25165e-027   
     length 3.20057   
     axis 180 30 90   XYZ
    dof rx
    limits (-10.0 170.0)
  end
  begin
     id 27 
     name rwrist
     direction -1 -4.48997e-011 1.59799e-026   
     length 1.60029   
     axis -1.17785e-014 -90 -90   XYZ
    dof ry
    limits (-180.0 0.0)
  end
  begin
     id 28
     name rhand
     direction -1 -4.49023e-011 3.19599e-026   
     length 0.960433   
     axis -2.03931e-014 -90 -90   XYZ
    dof rx rz
    limits (-90.0 90.0)
           (-45.0 45.0)
  end
  begin
     id 29
     name rfingers
     direction -1 -4.48802e-011 6.39197e-026   
     length 0.774326   
     axis -4.07862e-014 -90 -90   XYZ
    dof rx
    limits (0.0 90.0)
  end
  begin
     id 30
     name rthumb
     direction -0.707107 -6.34876e-011 0.707107   
     length 1.11178   
     axis -90 -45 -2.85299e-015   XYZ
    dof rx rz
    limits (-45.0 45.0)
           (-45.0 45.0)
  end
:hierarchy
  begin
    root lhipjoint rhipjoint lowerback
    lhipjoint lfemur
    lfemur ltibia
    ltibia lfoot
    lfoot ltoes
    rhipjoint rfemur
    rfemur rtibia
    rtibia rfoot
    rfoot rtoes
    lowerback upperback
    upperback thorax
    thorax lowerneck lclavicle rclavicle
    lowerneck upperneck
    upperneck head
    lclavicle lhumerus
    lhumerus lradius
    lradius lwrist
    lwrist lhand lthumb
    lhand lfingers
    rclavicle rhumerus
    rhumerus rradius
    rradius rwrist
    rwrist rhand rthumb
    rhand rfingers
end

#!OML:ASF C:\KaitlinTest1\Natural Motions\Nikki\Session 2\Nikki.ASF
:FULLY-SPECIFIED
:DEGREES
512
root 0.572476 16.5869 5.16314 -151.397 83.4614 -163.073
lowerback -10.4204 -3.52615 1.11532
upperback -3.47743 -4.6898 0.688026
thorax 2.17424 -2.28356 -0.475066
lowerneck 9.83804 -6.74974 -15.9938
upperneck 12.858 46.9044 9.42276
head 175.036 57.1413 -30.0326
rclavicle -5.97977e-014 1.59028e-015
rhumerus -38.3915 -13.9385 -84.7823
rradius 20.6158
rwrist 14.0822
rhand -37.7524 2.57914
rfingers 7.12502
rthumb -10.8005 -27.1232
lclavicle -5.97977e-014 1.59028e-015
lhumerus -37.9235 11.134 87.3438
lradius 26.2399
lwrist -27.4927
lhand -36.1338 3.99394
lfingers 7.12502
lthumb -9.23888 33.7715
rfemur -20.0461 -17.3621 23.3646
rtibia 26.2011
rfoot -15.7282 12.0446
rtoes -6.44062e-014
lfemur -23.8521 20.0423 -21.2202
ltibia 27.6414
lfoot -8.16287 -25.5701
ltoes -7.95139e-015
513
root 0.579524 16.5844 5.16104 -151.155 83.5253 -162.817
lowerback -10.5291 -3.53323 1.09322
upperback -3.26025 -4.70889 0.666522
thorax 2.45897 -2.29303 -0.503465
lowerneck 9.07202 -7.00452 -15.7323
upperneck 12.149 45.907 8.81499
head 174.3 58.2683 -30.475
rclavicle -3.51523e-014 8.15017e-015
rhumerus -37.7956 -14.1922 -84.872
rradius 20.4149
rwrist 14.3324
rhand -37.7258 2.54184
rfingers 7.12502
rthumb -10.7748 -27.1618
lclavicle -3.51523e-014 8.15017e-015
lhumerus -37.3657 11.2043 87.3891
lradius 26.2127
lwrist -27.566
lhand -36.1045 3.93169
lfingers 7.12502
lthumb -9.21067 33.7105
rfemur -20.02 -17.4096 23.369
rtibia 26.2193
rfoot -15.7707 12.1338
rtoes 6.75868e-014
lfemur -23.7687 20.0092 -21.1851
ltibia 27.6174
lfoot -8.19003 -25.4659
ltoes -3.18055e-014
514
root 0.585617 16.5862 5.15888 -150.806 83.551 -162.468
lowerback -10.5985 -3.53792 1.0893
upperback -3.29555 -4.71345 0.681345
thorax 2.46178 -2.29437 -0.489729
lowerneck 8.81985 -7.09559 -15.6267
upperneck 12.0148 45.7777 8.71622
head 174.094 58.3889 -30.6366
rclavicle 2.68441e-014 1.0138e-014
rhumerus -37.7811 -14.3121 -84.772
rradius 20.3424
rwrist 14.4899
rhand -37.7275 2.55064
rfingers 7.12502
rthumb -10.7764 -27.1529
lclavicle 2.68441e-014 1.0138e-014
lhumerus -37.3926 10.9929 87.5983
lradius 26.3401
lwrist -26.8824
lhand -36.3295 4.02484
lfingers 7.12502
lthumb -9.42777 33.794
rfemur -20.0064 -17.3132 23.3634
rtibia 26.2227
rfoot -15.666 12.087
rtoes 4.37326e-014
lfemur -23.7345 20.0306 -21.1514
ltibia 27.6107
lfoot -8.22353 -25.4413
ltoes 7.31528e-014
515
root 0.592248 16.5864 5.15728 -150.714 83.5995 -162.358
lowerback -10.6475 -3.5339 1.04975
upperback -3.32206 -4.70255 0.675951
thorax 2.46397 -2.28832 -0.474175
lowerneck 8.58375 -7.20147 -15.506
upperneck 11.8428 45.546 8.58051
head 173.846 58.5924 -30.8027
rclavicle 1.38881e-014 5.56597e-015
rhumerus -37.7736 -14.4266 -84.6877
rradius 20.243
rwrist 14.5773
rhand -37.7276 2.55779
rfingers 7.12502
rthumb -10.7765 -27.1458
lclavicle 1.38881e-014 5.56597e-015
lhumerus -37.3815 10.9867 87.5901
lradius 26.3634
lwrist -27.0375
lhand -36.2006 4.07292
lfingers 7.12502
lthumb -9.30333 33.8476
rfemur -19.9538 -17.31 23.3457
rtibia 26.2188
rfoot -15.7872 12.1397
rtoes 5.56597e-014
lfemur -23.6859 20.0144 -21.1326
ltibia 27.6317
lfoot -8.24984 -25.3444
ltoes 1.59028e-014
516
root 0.600115 16.585 5.15461 -150.513 83.6496 -162.115
lowerback -10.7113 -3.51815 1.0479
upperback -3.32687 -4.681 0.66502
thorax 2.49343 -2.27694 -0.485748
lowerneck 8.32611 -7.27842 -15.4134
upperneck 11.7104 45.4366 8.50303
head 173.764 58.6575 -30.8908
rclavicle -2.11116e-014 7.95139e-015
rhumerus -37.7468 -14.5521 -84.6184
rradius 20.1687
rwrist 14.5983
rhand -37.7262 2.57755
rfingers 7.12502
rthumb -10.7752 -27.1261
lclavicle -2.11116e-014 7.95139e-015
lhumerus -37.3571 10.9173 87.6476
lradius 26.3637
lwrist -26.9307
lhand -36.2992 3.94917
lfingers 7.12502
lthumb -9.39848 33.7196
rfemur -19.8693 -17.4241 23.3546
rtibia 26.2156
rfoot -15.8658 12.242
rtoes 2.70347e-014
lfemur -23.5858 19.9907 -21.0883
ltibia 27.6504
lfoot -8.32326 -25.2759
ltoes 9.38264e-014
517
root 0.605808 16.5832 5.15415 -149.93 83.6862 -161.478
lowerback -10.7037 -3.50849 1.06937
upperback -3.3446 -4.66918 0.65885
thorax 2.46872 -2.27109 -0.501294
lowerneck 8.0914 -7.38835 -15.2588
upperneck 11.5508 45.2172 8.3907
head 173.518 58.863 -31.066
rclavicle 6.14858e-014 2.34566e-014
rhumerus -37.8435 -15.654 -83.8216
rradius 19.7908
rwrist 16.9051
rhand -37.2427 2.99454
rfingers 7.12502
rthumb -10.3088 -26.7328
lclavicle 6.14858e-014 2.34566e-014
lhumerus -37.326 10.968 87.6053
lradius 26.3256
lwrist -26.9052
lhand -36.2929 3.85455
lfingers 7.12502
lthumb -9.39238 33.6253
rfemur -19.7922 -17.4053 23.3898
rtibia 26.215
rfoot -15.9635 12.2726
rtoes 1.52667e-013
lfemur -23.4962 19.9859 -20.9911
ltibia 27.6746
lfoot -8.37235 -25.1947
ltoes 1.00187e-013
